<?xml version="1.0" encoding="UTF-8" standalone="no"?>
<svg
   fill="#000000"
   viewBox="0 0 48 48"
   width="96px"
   height="96px"
   version="1.1"
   id="svg4"
   sodipodi:docname="menu.svg"
   inkscape:version="1.1.2 (0a00cf5339, 2022-02-04)"
   xmlns:inkscape="http://www.inkscape.org/namespaces/inkscape"
   xmlns:sodipodi="http://sodipodi.sourceforge.net/DTD/sodipodi-0.dtd"
   xmlns="http://www.w3.org/2000/svg"
   xmlns:svg="http://www.w3.org/2000/svg">
  <defs
     id="defs8" />
  <sodipodi:namedview
     id="namedview6"
     pagecolor="#505050"
     bordercolor="#eeeeee"
     borderopacity="1"
     inkscape:pageshadow="0"
     inkscape:pageopacity="0"
     inkscape:pagecheckerboard="0"
     showgrid="false"
     inkscape:zoom="4.2708333"
     inkscape:cx="23.531707"
     inkscape:cy="50.107317"
     inkscape:window-width="1920"
     inkscape:window-height="1010"
     inkscape:window-x="0"
     inkscape:window-y="38"
     inkscape:window-maximized="1"
     inkscape:current-layer="svg4" />
  <path
     d="M 5.5 9 A 1.50015 1.50015 0 1 0 5.5 12 L 42.5 12 A 1.50015 1.50015 0 1 0 42.5 9 L 5.5 9 z M 5.5 22.5 A 1.50015 1.50015 0 1 0 5.5 25.5 L 42.5 25.5 A 1.50015 1.50015 0 1 0 42.5 22.5 L 5.5 22.5 z M 5.5 36 A 1.50015 1.50015 0 1 0 5.5 39 L 42.5 39 A 1.50015 1.50015 0 1 0 42.5 36 L 5.5 36 z"
     id="path2"
     style="fill:#e6e6e6" />
</svg>
